<?xml version="1.0" standalone="no"?>
<!DOCTYPE svg PUBLIC "-//W3C//DTD SVG 20010904//EN"
 "http://www.w3.org/TR/2001/REC-SVG-20010904/DTD/svg10.dtd">
<svg version="1.0" xmlns="http://www.w3.org/2000/svg"
 width="270.000000pt" height="270.000000pt" viewBox="0 0 270.000000 270.000000"
 preserveAspectRatio="xMidYMid meet">
<metadata>
Created by potrace 1.14, written by Peter Selinger 2001-2017
</metadata>
<g transform="translate(0.000000,270.000000) scale(0.100000,-0.100000)"
fill="#000000" stroke="none">
<path d="M0 1350 l0 -1350 1350 0 1350 0 0 1350 0 1350 -1350 0 -1350 0 0
-1350z m2175 317 c22 -12 40 -29 40 -37 0 -18 -61 -60 -88 -60 -15 0 -18 5
-13 23 3 12 6 39 6 60 0 20 3 37 8 37 4 0 25 -11 47 -23z m-165 -32 c0 -51
-10 -56 -39 -19 -26 33 -27 51 -3 57 39 10 42 7 42 -38z"/>
</g>
</svg>
