<svg width="43" height="28" viewBox="0 0 43 28" fill="none" xmlns="http://www.w3.org/2000/svg">
<path d="M20.8234 14.4288C21.1697 14.6407 21.8277 14.6407 22.3125 14.3312L39.9797 0.972236C39.1034 0.462541 38.0842 0.190244 37.0423 0.1875H5.95711C4.87951 0.1875 3.86914 0.463815 3.01562 0.950131L20.8234 14.4288Z" fill="white"/>
<path d="M24.7894 17.2545C23.8148 17.8858 22.6476 18.2282 21.4487 18.2345C20.3528 18.2345 19.2711 17.9361 18.3463 17.3503L0.628142 3.94531C0.516304 4.34272 0.458837 4.75103 0.457031 5.1611V23.0111C0.457031 25.7558 2.92185 27.9848 5.95703 27.9848H37.0422C40.0774 27.9848 42.5422 25.7558 42.5422 23.0111V5.1611C42.5425 4.75595 42.4899 4.35218 42.3854 3.95821L24.7894 17.2545Z" fill="white"/>
</svg>
