<svg width="26" height="26" viewBox="0 0 26 26" fill="none" xmlns="http://www.w3.org/2000/svg">
<path fill-rule="evenodd" clip-rule="evenodd" d="M16.6365 19.114L18.9526 17.2701C19.9191 16.3037 21.4878 16.3037 22.4541 17.2701L25.2753 19.4369C26.2416 20.4034 26.2416 21.9719 25.2753 22.9384L24.1441 24.2384C22.9502 25.4344 21.3772 26 19.8106 26C11.7633 26 0 14.8564 0 6.18934C0 4.62277 0.565523 3.0497 1.76157 1.85583L3.06162 0.72478C4.02799 -0.241593 5.59674 -0.241593 6.56311 0.72478L8.72986 3.5459C9.69635 4.51227 9.69635 6.08099 8.72986 7.04737L6.88596 9.36364C8.8382 14.2258 12.1491 17.4001 16.6365 19.114Z" fill="white"/>
</svg>
