<svg width="43" height="27" viewBox="0 0 43 27" fill="none" xmlns="http://www.w3.org/2000/svg">
<path fill-rule="evenodd" clip-rule="evenodd" d="M7.27984 12.2353C16.1258 8.53529 22.0388 6.14385 25.019 4.97069C33.4392 1.6317 35.1894 1.04512 36.3248 1C36.5613 1 37.1289 1.04512 37.5074 1.31585C37.7912 1.54146 37.8858 1.85731 37.9331 2.08292C37.9804 2.30852 38.0277 2.80486 37.9804 3.21095C37.5074 7.76823 35.5679 18.9132 34.5272 24.012C34.1014 26.1778 33.25 26.8997 32.4458 26.99C30.6955 27.1253 29.3237 25.8619 27.6207 24.8242C24.9717 23.1547 23.458 22.1169 20.8562 20.4925C17.876 18.5974 19.8155 17.5596 21.5185 15.8901C21.9442 15.4389 29.7494 8.71578 29.8914 8.08408C29.8914 7.99383 29.9387 7.7231 29.7494 7.58774C29.5602 7.45237 29.3237 7.4975 29.1345 7.54262C28.8507 7.58774 24.5933 10.295 16.315 15.6194C15.0851 16.4316 13.9971 16.7925 13.0037 16.7925C11.9157 16.7925 9.83428 16.2059 8.27323 15.7096C6.38105 15.123 4.86731 14.8072 5.00923 13.8145C5.10383 13.3182 5.86071 12.7767 7.27984 12.2353Z" fill="white"/>
</svg>
