<svg width="30.461426" height="24.000000" viewBox="0 0 30.4614 24" fill="none" xmlns="http://www.w3.org/2000/svg" xmlns:xlink="http://www.w3.org/1999/xlink">
	<desc>
			Created with Pixso.
	</desc>
	<defs/>
	<path id="Path-3" d="M2.10449 10.3711C10.27 6.95557 15.728 4.74829 18.479 3.66528C26.2515 0.583008 27.8672 0.041748 28.915 0C29.1333 0 29.6572 0.041748 30.0068 0.291504C30.2686 0.499756 30.356 0.79126 30.3999 0.999512C30.4434 1.20776 30.4873 1.66602 30.4434 2.04077C30.0068 6.24756 28.2163 16.5354 27.2559 21.2417C26.8628 23.241 26.0767 23.9075 25.3345 23.9907C23.7188 24.1157 22.4526 22.9495 20.8809 21.9915C18.4355 20.4504 17.0381 19.4924 14.6367 17.9932C11.8857 16.2437 13.6758 15.2859 15.248 13.7446C15.6406 13.3281 22.8457 7.12231 22.9766 6.53906C22.9766 6.45581 23.0205 6.20605 22.8457 6.08105C22.6709 5.95605 22.4526 5.9978 22.2778 6.03931C22.0161 6.08105 18.0859 8.58008 10.4448 13.4949C9.30908 14.2446 8.30518 14.5776 7.38818 14.5776C6.38379 14.5776 4.4624 14.0364 3.02148 13.5781C1.2749 13.0366 -0.122559 12.7451 0.00830078 11.8289C0.0957031 11.3706 0.794434 10.8708 2.10449 10.3711Z" fill="#FFFFFF" fill-opacity="1.000000" fill-rule="evenodd"/>
</svg>
