<svg width="42.000000" height="28.000000" viewBox="0 0 42 28" fill="none" xmlns="http://www.w3.org/2000/svg" xmlns:xlink="http://www.w3.org/1999/xlink">
	<desc>
			Created with Pixso.
	</desc>
	<defs>
		<clipPath id="clip582_172">
			<rect id="icon-vk-seeklogo.com 2" width="42.000000" height="28.000000" fill="white" fill-opacity="0"/>
		</clipPath>
	</defs>
	<rect id="icon-vk-seeklogo.com 2" width="42.000000" height="28.000000" fill="#FFFFFF" fill-opacity="0"/>
	<g clip-path="url(#clip582_172)">
		<path id="Path-3" d="M8.32227 11.9131C16.4766 8.50244 21.9272 6.2981 24.6743 5.21655C32.4363 2.13867 34.0496 1.5979 35.0962 1.5564C35.3142 1.5564 35.8374 1.5979 36.1863 1.84766C36.448 2.05542 36.5352 2.34668 36.5789 2.55469C36.6223 2.7627 36.666 3.22021 36.6223 3.59448C36.1863 7.79541 34.3984 18.0691 33.4392 22.769C33.0466 24.7656 32.2617 25.4312 31.5205 25.5142C29.9072 25.6389 28.6426 24.4744 27.0728 23.5178C24.6309 21.9788 23.2354 21.0222 20.8372 19.5249C18.0898 17.7778 19.8777 16.8213 21.4475 15.2822C21.8401 14.8662 29.0349 8.66895 29.1658 8.08667C29.1658 8.00342 29.2095 7.75391 29.0349 7.62915C28.8606 7.50415 28.6426 7.5459 28.468 7.5874C28.2065 7.62915 24.282 10.1248 16.6509 15.0327C15.5173 15.7812 14.5144 16.114 13.5986 16.114C12.5957 16.114 10.677 15.5735 9.23804 15.116C7.49365 14.5752 6.09839 14.2839 6.22925 13.3689C6.31641 12.9114 7.01416 12.4124 8.32227 11.9131Z" fill="#FFFFFF" fill-opacity="1.000000" fill-rule="evenodd"/>
	</g>
</svg>
