<svg width="25.000000" height="25.000000" viewBox="0 0 25 25" fill="none" xmlns="http://www.w3.org/2000/svg" xmlns:xlink="http://www.w3.org/1999/xlink">
	<desc>
			Created with Pixso.
	</desc>
	<defs>
		<clipPath id="clip582_181">
			<rect id="Search interface symbol - Free interface icons-2 1" width="25.000000" height="25.000000" fill="white" fill-opacity="0"/>
		</clipPath>
	</defs>
	<rect id="Search interface symbol - Free interface icons-2 1" width="25.000000" height="25.000000" fill="#FFFFFF" fill-opacity="0"/>
	<g clip-path="url(#clip582_181)">
		<path id="Vector" d="M23.8198 22.783L17.8618 16.9199C19.4219 15.2249 20.3809 12.9829 20.3809 10.5161C20.3799 5.23877 16.0332 0.961426 10.6709 0.961426C5.30859 0.961426 0.961914 5.23877 0.961914 10.5161C0.961914 15.7932 5.30859 20.0708 10.6709 20.0708C12.9878 20.0708 15.1128 19.2693 16.7817 17.937L22.7632 23.823C23.0547 24.1101 23.5278 24.1101 23.8193 23.823C23.8887 23.7554 23.9438 23.6746 23.9814 23.5852C24.019 23.4958 24.0381 23.3999 24.0386 23.303C24.0386 23.2063 24.019 23.1104 23.9814 23.021C23.9443 22.9316 23.8892 22.8506 23.8198 22.783ZM10.6709 18.6006C6.13379 18.6006 2.45557 14.981 2.45557 10.5161C2.45557 6.05103 6.13379 2.4314 10.6709 2.4314C15.208 2.4314 18.8862 6.05103 18.8862 10.5161C18.8862 14.981 15.208 18.6006 10.6709 18.6006Z" fill="#FFFFFF" fill-opacity="0.570000" fill-rule="nonzero"/>
		<path id="Vector" d="M17.8618 16.9199C19.4219 15.2249 20.3809 12.9829 20.3809 10.5161C20.3799 5.23877 16.0332 0.961426 10.6709 0.961426C5.30859 0.961426 0.961914 5.23877 0.961914 10.5161C0.961914 15.7932 5.30859 20.0708 10.6709 20.0708C12.9878 20.0708 15.1128 19.2693 16.7817 17.937L22.7632 23.823C23.0547 24.1101 23.5278 24.1101 23.8193 23.823C23.8887 23.7554 23.9438 23.6746 23.9814 23.5852C24.019 23.4958 24.0381 23.3999 24.0386 23.303C24.0386 23.2063 24.019 23.1104 23.9814 23.021C23.9443 22.9316 23.8892 22.8506 23.8198 22.783L17.8618 16.9199ZM16.7637 18.2563Q16.1616 18.7166 15.5049 19.0771Q14.8081 19.4597 14.0498 19.73Q13.3716 19.9717 12.6733 20.1128Q11.6919 20.311 10.6709 20.311Q9.51904 20.311 8.42383 20.0618Q7.59521 19.873 6.79932 19.5417Q5.89404 19.165 5.09375 18.6309Q4.31592 18.1116 3.63672 17.4436Q2.85645 16.6758 2.27588 15.7788Q1.83154 15.0923 1.50391 14.3303Q1.14111 13.4861 0.946777 12.605Q0.72168 11.5854 0.72168 10.5161Q0.72168 9.44653 0.946777 8.42676Q1.14111 7.5459 1.50391 6.7019Q1.83154 5.9397 2.27588 5.25317Q2.85693 4.3562 3.63672 3.58838Q4.31543 2.92065 5.09326 2.40137Q5.89404 1.86719 6.79932 1.49023Q7.59521 1.15918 8.42334 0.970459Q9.51855 0.720947 10.6709 0.720947Q11.8228 0.720947 12.9185 0.970459Q13.7466 1.15894 14.5425 1.49023Q15.4478 1.86694 16.248 2.40112Q17.0264 2.92041 17.7051 3.58838Q18.4854 4.3562 19.0659 5.25342Q19.5107 5.9397 19.8379 6.7019Q20.2012 7.5459 20.3955 8.427Q20.6211 9.44678 20.6211 10.5161Q20.6211 11.5002 20.4277 12.4448Q20.2554 13.2866 19.9292 14.0972Q19.6704 14.7407 19.3267 15.3354Q18.8442 16.1709 18.1943 16.9099L23.9883 22.6111Q24.0576 22.6792 24.1113 22.7583Q24.1655 22.8376 24.2031 22.9277Q24.2412 23.0181 24.2598 23.1118Q24.2788 23.2056 24.2788 23.3032Q24.2788 23.4009 24.2598 23.4946Q24.2407 23.5884 24.2026 23.6785Q24.1621 23.7747 24.1035 23.8584Q24.0527 23.9312 23.9878 23.9941Q23.9155 24.0657 23.8315 24.1199Q23.7515 24.1716 23.6611 24.2078Q23.5791 24.2407 23.4937 24.2583Q23.3945 24.2788 23.291 24.2788Q23.188 24.2788 23.0889 24.2583Q23.0034 24.2407 22.9209 24.2078Q22.8301 24.1714 22.7495 24.1191Q22.6665 24.0652 22.5947 23.9944L16.7637 18.2563ZM10.6709 18.6006C6.13379 18.6006 2.45557 14.981 2.45557 10.5161C2.45557 6.05103 6.13379 2.4314 10.6709 2.4314C15.208 2.4314 18.8862 6.05103 18.8862 10.5161C18.8862 14.981 15.208 18.6006 10.6709 18.6006ZM2.87744 12.1929Q2.69629 11.3745 2.69629 10.5161Q2.69629 9.65747 2.87744 8.83911Q3.0332 8.13672 3.32227 7.46411Q3.58203 6.85938 3.93408 6.31396Q4.40137 5.59009 5.03076 4.9707Q5.57422 4.43555 6.19775 4.01929Q6.83936 3.59082 7.56543 3.28882Q8.19873 3.02515 8.85742 2.87427Q9.74072 2.67188 10.6709 2.67188Q11.6011 2.67188 12.4849 2.87427Q13.1436 3.02539 13.7764 3.28882Q14.5024 3.59082 15.144 4.01929Q15.7676 4.43555 16.3115 4.9707Q16.9404 5.59009 17.4077 6.31396Q17.7598 6.85938 18.0195 7.46411Q18.3086 8.13672 18.4644 8.83911Q18.6455 9.65747 18.6455 10.5161Q18.6455 11.3748 18.4644 12.1931Q18.3086 12.8953 18.0195 13.5681Q17.7598 14.1726 17.4077 14.718Q16.9409 15.4421 16.3115 16.0615Q15.7676 16.5967 15.144 17.0127Q14.5024 17.4412 13.7764 17.7434Q13.1431 18.0068 12.4844 18.1577Q11.6011 18.3604 10.6709 18.3604Q9.74121 18.3604 8.85742 18.158Q8.19873 18.0068 7.56543 17.7434Q6.83984 17.4412 6.19775 17.0129Q5.57471 16.5967 5.03076 16.0615Q4.40137 15.4421 3.93408 14.718Q3.58203 14.1729 3.32227 13.5681Q3.0332 12.8953 2.87744 12.1929Z" fill="#FFFFFF" fill-opacity="0.570000" fill-rule="evenodd"/>
	</g>
</svg>
