<svg width="22.008301" height="11.004150" viewBox="0 0 22.0083 11.0042" fill="none" xmlns="http://www.w3.org/2000/svg" xmlns:xlink="http://www.w3.org/1999/xlink">
	<desc>
			Created with Pixso.
	</desc>
	<defs/>
	<path id="Vector 23" d="M1.6731 0.260742L11.6731 9.26074L11.0042 10.0042L10.3352 9.26074L20.3352 0.260742L21.6731 1.74756L11.6731 10.7476Q11.6048 10.809 11.5265 10.857Q11.4482 10.905 11.3624 10.9379Q11.2766 10.9708 11.1863 10.9875Q11.096 11.0043 11.0042 11.0043Q10.9123 11.0043 10.822 10.9875Q10.7317 10.9708 10.6459 10.9379Q10.5601 10.905 10.4818 10.857Q10.4035 10.809 10.3352 10.7476L0.335205 1.74756L1.6731 0.260742ZM0.363525 1.74585L0.335205 1.74756C-0.0810547 1.3728 -0.11377 0.751465 0.260742 0.335205C0.635498 -0.0810547 1.25684 -0.11377 1.6731 0.260742L1.67456 0.289062L0.363525 1.74585ZM20.3337 0.289062L20.3352 0.260742C20.7515 -0.11377 21.3728 -0.0810547 21.7476 0.335205C22.1221 0.751465 22.0894 1.3728 21.6731 1.74756L21.6448 1.74585L20.3337 0.289062Z" fill="#FFFFFF" fill-opacity="1.000000" fill-rule="evenodd"/>
</svg>
