<svg width="13.007812" height="13.007812" viewBox="0 0 13.0078 13.0078" fill="none" xmlns="http://www.w3.org/2000/svg" xmlns:xlink="http://www.w3.org/1999/xlink">
	<desc>
			Created with Pixso.
	</desc>
	<defs/>
	<path id="Vector 24" d="M1.71094 0.296875L7.21094 5.79688L6.50391 6.50391L5.79688 5.79688L11.2969 0.296875L12.7109 1.71094L7.21094 7.21094Q7.1413 7.2806 7.05942 7.33533Q6.97753 7.39006 6.88655 7.42776Q6.79556 7.46546 6.69898 7.48468Q6.60239 7.5039 6.50391 7.5039Q6.40542 7.5039 6.30884 7.48468Q6.21225 7.46546 6.12126 7.42776Q6.03028 7.39006 5.94839 7.33533Q5.86651 7.2806 5.79688 7.21094L0.296875 1.71094L1.71094 0.296875ZM0.325195 1.71094L0.296875 1.71094C-0.0991211 1.31494 -0.0991211 0.692871 0.296875 0.296875C0.692871 -0.0991211 1.31494 -0.0991211 1.71094 0.296875L1.71094 0.325195L0.325195 1.71094ZM11.2969 0.325195L11.2969 0.296875C11.6929 -0.0991211 12.3149 -0.0991211 12.7109 0.296875C13.1069 0.692871 13.1069 1.31494 12.7109 1.71094L12.6826 1.71094L11.2969 0.325195Z" fill="#E54839" fill-opacity="1.000000" fill-rule="evenodd"/>
	<path id="Vector 25" d="M11.2969 12.7109L5.79688 7.21094L6.50391 6.50391L7.21094 7.21094L1.71094 12.7109L0.296875 11.2969L5.79688 5.79688Q5.86651 5.72721 5.9484 5.67248Q6.03028 5.61775 6.12126 5.58005Q6.21225 5.54235 6.30884 5.52313Q6.40543 5.50391 6.50391 5.50391Q6.60239 5.50391 6.69898 5.52313Q6.79556 5.54235 6.88655 5.58005Q6.97753 5.61775 7.05942 5.67248Q7.1413 5.72721 7.21094 5.79688L12.7109 11.2969L11.2969 12.7109ZM12.6826 11.2969L12.7109 11.2969C13.1069 11.6929 13.1069 12.3149 12.7109 12.7109C12.3149 13.1069 11.6929 13.1069 11.2969 12.7109L11.2969 12.6826L12.6826 11.2969ZM1.71094 12.6826L1.71094 12.7109C1.31494 13.1069 0.692871 13.1069 0.296875 12.7109C-0.0991211 12.3149 -0.0991211 11.6929 0.296875 11.2969L0.325195 11.2969L1.71094 12.6826Z" fill="#E54839" fill-opacity="1.000000" fill-rule="evenodd"/>
</svg>
