<svg width="24.283691" height="24.393311" viewBox="0 0 24.2837 24.3933" fill="none" xmlns="http://www.w3.org/2000/svg" xmlns:xlink="http://www.w3.org/1999/xlink">
	<desc>
			Created with Pixso.
	</desc>
	<defs/>
	<path id="Vector" d="M22.9336 21.9453L17.2534 16.356C18.7407 14.74 19.6548 12.6025 19.6548 10.2507C19.6538 5.21997 15.5103 1.14209 10.3979 1.14209C5.28613 1.14209 1.14209 5.21997 1.14209 10.2507C1.14209 15.2817 5.28613 19.3596 10.3979 19.3596C12.6069 19.3596 14.6328 18.5957 16.2241 17.3254L21.9258 22.9368C22.2036 23.2104 22.6548 23.2104 22.9326 22.9368C22.999 22.8723 23.0513 22.7952 23.0874 22.71C23.123 22.625 23.1416 22.5334 23.1416 22.4412C23.1416 22.3489 23.1235 22.2573 23.0874 22.1721C23.0518 22.0869 22.9995 22.0098 22.9336 21.9453ZM10.3979 17.9583C6.07275 17.9583 2.56641 14.5076 2.56641 10.2507C2.56641 5.99414 6.07275 2.54346 10.3979 2.54346C14.7236 2.54346 18.23 5.99414 18.23 10.2507C18.23 14.5076 14.7236 17.9583 10.3979 17.9583Z" fill="#FFFFFF" fill-opacity="1.000000" fill-rule="nonzero"/>
	<path id="Vector" d="M17.2534 16.356C18.7407 14.74 19.6548 12.6025 19.6548 10.2507C19.6538 5.21997 15.5103 1.14209 10.3979 1.14209C5.28613 1.14209 1.14209 5.21997 1.14209 10.2507C1.14209 15.2817 5.28613 19.3596 10.3979 19.3596C12.6069 19.3596 14.6328 18.5957 16.2241 17.3254L21.9258 22.9368C22.2036 23.2104 22.6548 23.2104 22.9326 22.9368C22.999 22.8723 23.0513 22.7952 23.0874 22.71C23.123 22.625 23.1416 22.5334 23.1416 22.4412C23.1416 22.3489 23.1235 22.2573 23.0874 22.1721C23.0518 22.0869 22.9995 22.0098 22.9336 21.9453L17.2534 16.356ZM16.1118 18.8176Q15.0752 19.5007 13.9395 19.9067Q12.2754 20.5017 10.3979 20.5017Q8.19336 20.5017 6.31934 19.7151Q4.53613 18.9666 3.05176 17.5059Q1.48975 15.9685 0.727051 14.104Q0 12.3262 0 10.2507Q0 8.17554 0.727051 6.39771Q1.48975 4.5332 3.05176 2.99585Q4.53613 1.53516 6.31934 0.786621Q8.19336 0 10.3979 0Q12.6021 0 14.4761 0.786377Q16.2598 1.53491 17.7441 2.99585Q19.3062 4.53296 20.0688 6.39697Q20.7964 8.17505 20.7969 10.2507Q20.7969 12.1282 20.1836 13.7773Q19.6914 15.1018 18.8037 16.2793L23.7324 21.1292Q23.8647 21.2585 23.9668 21.4087Q24.0688 21.5591 24.1406 21.73Q24.2124 21.9009 24.248 22.0791Q24.2842 22.2568 24.2837 22.4419Q24.2837 22.6272 24.2476 22.8054Q24.2114 22.9832 24.1396 23.1538Q24.0552 23.3538 23.9307 23.5242Q23.8428 23.6448 23.7344 23.7505Q23.0815 24.3936 22.4292 24.3933Q21.7769 24.3933 21.125 23.751L16.1118 18.8176ZM10.3979 17.9583C6.07275 17.9583 2.56641 14.5076 2.56641 10.2507C2.56641 5.99414 6.07275 2.54346 10.3979 2.54346C14.7236 2.54346 18.23 5.99414 18.23 10.2507C18.23 14.5076 14.7236 17.9583 10.3979 17.9583ZM4.16602 12.6929Q3.7085 11.5647 3.7085 10.2507Q3.7085 8.93701 4.16602 7.80859Q4.65381 6.60645 5.66113 5.61499Q6.60986 4.68164 7.74951 4.19971Q8.96484 3.68579 10.3979 3.68579Q11.8311 3.68579 13.0469 4.19971Q14.1865 4.68164 15.1348 5.61499Q16.1421 6.60645 16.6299 7.80859Q17.0874 8.93701 17.0874 10.2507Q17.0874 11.5647 16.6299 12.6931Q16.1421 13.8953 15.1348 14.8867Q14.1865 15.8201 13.0469 16.302Q11.8311 16.8159 10.3979 16.8159Q8.96484 16.8159 7.74951 16.302Q6.60986 15.8201 5.66113 14.8867Q4.65381 13.8953 4.16602 12.6929Z" fill="#FFFFFF" fill-opacity="1.000000" fill-rule="evenodd"/>
</svg>
