<svg width="44" height="42" viewBox="0 0 44 42" fill="none" xmlns="http://www.w3.org/2000/svg">
<path d="M41.5016 37.1673H2.50163C1.92699 37.1673 1.37589 37.3956 0.969563 37.8019C0.563234 38.2082 0.334961 38.7593 0.334961 39.334C0.334961 39.9086 0.563234 40.4597 0.969563 40.866C1.37589 41.2724 1.92699 41.5006 2.50163 41.5006H41.5016C42.0763 41.5006 42.6274 41.2724 43.0337 40.866C43.44 40.4597 43.6683 39.9086 43.6683 39.334C43.6683 38.7593 43.44 38.2082 43.0337 37.8019C42.6274 37.3956 42.0763 37.1673 41.5016 37.1673ZM22.0016 0.333984C21.427 0.333984 20.8759 0.562257 20.4696 0.968586C20.0632 1.37492 19.835 1.92602 19.835 2.50065V25.4457L12.7066 18.2957C12.2986 17.8877 11.7453 17.6585 11.1683 17.6585C10.5913 17.6585 10.038 17.8877 9.62996 18.2957C9.22197 18.7036 8.99276 19.257 8.99276 19.834C8.99276 20.411 9.22197 20.9643 9.62996 21.3723L20.4633 32.2056C20.6647 32.4087 20.9044 32.5699 21.1684 32.6799C21.4324 32.7899 21.7156 32.8465 22.0016 32.8465C22.2877 32.8465 22.5709 32.7899 22.8349 32.6799C23.0989 32.5699 23.3385 32.4087 23.54 32.2056L34.3733 21.3723C34.5753 21.1703 34.7356 20.9305 34.8449 20.6665C34.9542 20.4026 35.0105 20.1197 35.0105 19.834C35.0105 19.5483 34.9542 19.2654 34.8449 19.0014C34.7356 18.7375 34.5753 18.4977 34.3733 18.2957C34.1713 18.0936 33.9314 17.9334 33.6675 17.8241C33.4036 17.7147 33.1207 17.6585 32.835 17.6585C32.5493 17.6585 32.2664 17.7147 32.0024 17.8241C31.7385 17.9334 31.4986 18.0936 31.2966 18.2957L24.1683 25.4457V2.50065C24.1683 1.92602 23.94 1.37492 23.5337 0.968586C23.1274 0.562257 22.5763 0.333984 22.0016 0.333984Z" fill="white"/>
</svg>
