<svg width="96" height="92" viewBox="0 0 96 92" fill="none" xmlns="http://www.w3.org/2000/svg">
<path d="M48.8051 74.1887L44.2162 76.044L40.4499 69.5583L39.7528 76.3232L33.8529 78.7086L39.8368 81.2469L40.3253 89.0579L43.0588 82.6137L50.3539 84.6219L45.7367 78.8615L48.8051 74.1887Z" fill="white" stroke="white" stroke-width="4" stroke-linejoin="round"/>
<path d="M77.5663 21.7562L80.6904 14.3914L84.3453 26.2612L90.8037 32.8026L82.1976 31.3245L81.3193 42.3575L77.9294 31.1433L66.2549 34.338L73.8424 26.694L68.3603 17.8511L77.5663 21.7562Z" fill="white" stroke="white" stroke-width="4" stroke-linejoin="round"/>
<path d="M30.5037 7.22439L20.0847 12.581L13.2217 3.15231L13.4037 16.8076L2.73369 25.3165L15.4684 24.744L19.793 40.1566L23.6142 26.0269L34.1313 29.4019L25.8177 18.2716L30.5037 7.22439Z" fill="white" stroke="white" stroke-width="4" stroke-linejoin="round"/>
</svg>
